<?xml version="1.0" encoding="UTF-8"?>
<svg id="Layer_1" data-name="Layer 1" xmlns="http://www.w3.org/2000/svg" viewBox="0 0 101.04 67.88">
  <path d="M100.98.5c.62,5.64-3.14,11.46-7.59,14.71-3.86,2.99-8.87,3.54-13.78,3.61-5.8.24-11.58-.43-17.39-.14-1.66.18-2.18,1.68-2.09,3.22.11,7.77-.02,15.51-.22,23.28-.25,5.52.34,11.38-2.4,16.4-1.37,2.27-3.85,5.71-6.75,6.28-4.61-.65-7.81-6.86-8.91-10.96-2.17-11.13.29-23.27-.59-34.45-.07-.84-.14-1.83-.53-2.51-1.28-1.84-4.33-.96-6.37-1.2-13.96-.61-27.91,3.11-33.76-13.37C.1,3.72-.19,2.07.14.78.4-.43,2.03.17,3.08.03c10.05,0,35.05,0,39.21,0,.86-.02,1.83.23,2.8.51,1.89.53,4,1.48,5.7,1.4,2.6-.12,5.69-2.02,8.45-1.92,3.63,0,26.32,0,35.75,0,2.78.01,4.72-.03,5.47.02.22.04.37.14.48.37l.03.08Z"/>
  <path d="M89.96,22.47c.37.37.47,1.74.33,2.55-.9,5.85-4.68,11.14-10.19,13.8-3.33,1.64-7.03,2.07-10.7,2.06-1.95-.13-4.47.29-6.15-.77-.59-.56-.35-1.52-.4-3.25,0-3.81,0-8.52,0-12.44,0-2.49.14-2.26,2.32-2.28.54,0,1.08,0,1.66,0,5.48,0,11.55,0,17,0,2.62,0,4.58-.01,5.4.01.26.01.49.06.67.25l.06.06Z"/>
  <path d="M37.67,40.32c-.24.39-.78.49-1.63.49-3.09-.14-7.21.33-10.41-.3-7.54-1.46-14.67-8.7-14.85-16.63.08-1.04.17-1.55.86-1.69.73-.07,2.28-.01,4.33-.03,6.85.04,17.79-.08,21.03.04,2.08.61.66,12.12.89,14.58-.05,1.13.2,2.41-.16,3.45l-.05.09Z"/>
</svg>